<?xml version="1.0" encoding="UTF-8"?>
<svg width="25px" height="25px" viewBox="0 0 25 25" version="1.1" xmlns="http://www.w3.org/2000/svg" xmlns:xlink="http://www.w3.org/1999/xlink">
    <!-- Generator: Sketch 56.3 (81716) - https://sketch.com -->
    <title>instagram</title>
    <desc>Created with Sketch.</desc>
    <g id="PDP---Desktop" stroke="none" stroke-width="1" fill="none" fill-rule="evenodd">
        <g id="PDP-D" transform="translate(-1073.000000, -1675.000000)" fill="#FFFFFF">
            <g id="Group-7" transform="translate(0.000000, 1460.000000)">
                <g id="Group-3" transform="translate(1073.000000, 117.000000)">
                    <g id="instagram" transform="translate(0.000000, 98.000000)">
                        <path d="M17.1875,0 L7.8125,0 C3.4984375,0 0,3.4984375 0,7.8125 L0,17.1875 C0,21.5015625 3.4984375,25 7.8125,25 L17.1875,25 C21.5015625,25 25,21.5015625 25,17.1875 L25,7.8125 C25,3.4984375 21.5015625,0 17.1875,0 Z M22.65625,17.1875 C22.65625,20.203125 20.203125,22.65625 17.1875,22.65625 L7.8125,22.65625 C4.796875,22.65625 2.34375,20.203125 2.34375,17.1875 L2.34375,7.8125 C2.34375,4.796875 4.796875,2.34375 7.8125,2.34375 L17.1875,2.34375 C20.203125,2.34375 22.65625,4.796875 22.65625,7.8125 L22.65625,17.1875 Z" id="Shape" fill-rule="nonzero"></path>
                        <path d="M12.5,6.25 C9.0484375,6.25 6.25,9.0484375 6.25,12.5 C6.25,15.9515625 9.0484375,18.75 12.5,18.75 C15.9515625,18.75 18.75,15.9515625 18.75,12.5 C18.75,9.0484375 15.9515625,6.25 12.5,6.25 Z M12.5,16.40625 C10.346875,16.40625 8.59375,14.653125 8.59375,12.5 C8.59375,10.3453125 10.346875,8.59375 12.5,8.59375 C14.653125,8.59375 16.40625,10.3453125 16.40625,12.5 C16.40625,14.653125 14.653125,16.40625 12.5,16.40625 Z" id="Shape" fill-rule="nonzero"></path>
                        <circle id="Oval" cx="19.21875" cy="5.78125" r="1"></circle>
                    </g>
                </g>
            </g>
        </g>
    </g>
</svg>