<?xml version="1.0" encoding="UTF-8"?>
<svg width="86px" height="13px" viewBox="0 0 86 13" version="1.1" xmlns="http://www.w3.org/2000/svg" xmlns:xlink="http://www.w3.org/1999/xlink">
    <!-- Generator: Sketch 56.3 (81716) - https://sketch.com -->
    <title>Reviews</title>
    <desc>Created with Sketch.</desc>
    <g id="PDP---Desktop" stroke="none" stroke-width="1" fill="none" fill-rule="evenodd">
        <g id="PDP-D" transform="translate(-279.000000, -215.000000)">
            <g id="Group-13" transform="translate(50.000000, 185.000000)">
                <g id="Reviews" transform="translate(229.000000, 30.000000)">
                    <polygon id="Star" fill="#7DC242" points="7 10.5 2.88550323 12.663119 3.67130219 8.08155948 0.342604386 4.83688104 4.94275162 4.16844052 7 0 9.05724838 4.16844052 13.6573956 4.83688104 10.3286978 8.08155948 11.1144968 12.663119"></polygon>
                    <polygon id="Star-Copy-2" fill="#7DC242" points="43 10.5 38.8855032 12.663119 39.6713022 8.08155948 36.3426044 4.83688104 40.9427516 4.16844052 43 0 45.0572484 4.16844052 49.6573956 4.83688104 46.3286978 8.08155948 47.1144968 12.663119"></polygon>
                    <polygon id="Star-Copy" fill="#7DC242" points="25 10.5 20.8855032 12.663119 21.6713022 8.08155948 18.3426044 4.83688104 22.9427516 4.16844052 25 0 27.0572484 4.16844052 31.6573956 4.83688104 28.3286978 8.08155948 29.1144968 12.663119"></polygon>
                    <polygon id="Star-Copy-3" fill="#7DC242" points="61 10.5 56.8855032 12.663119 57.6713022 8.08155948 54.3426044 4.83688104 58.9427516 4.16844052 61 0 63.0572484 4.16844052 67.6573956 4.83688104 64.3286978 8.08155948 65.1144968 12.663119"></polygon>
                    <path d="M82.4504313,11.7491112 L81.7914575,7.90699953 L84.582915,5.18600094 L80.7252156,4.6254444 L79,1.12977573 L77.2747844,4.6254444 L73.417085,5.18600094 L76.2085425,7.90699953 L75.5495687,11.7491112 L79,9.93511213 L82.4504313,11.7491112 Z" id="Star-Copy-4" stroke="#7DC242"></path>
                </g>
            </g>
        </g>
    </g>
</svg>